<?xml version="1.0" standalone="no"?>
<!DOCTYPE svg PUBLIC "-//W3C//DTD SVG 20010904//EN"
 "http://www.w3.org/TR/2001/REC-SVG-20010904/DTD/svg10.dtd">
<svg version="1.0" xmlns="http://www.w3.org/2000/svg"
 width="2083.000000pt" height="2083.000000pt" viewBox="0 0 2083.000000 2083.000000"
 preserveAspectRatio="xMidYMid meet">
<metadata>
Created by potrace 1.11, written by Peter Selinger 2001-2013
</metadata>
<g transform="translate(0.000000,2083.000000) scale(0.100000,-0.100000)"
fill="#000000" stroke="none">
<path d="M19585 19880 c-489 -243 -958 -474 -1330 -655 -402 -196 -427 -209
-559 -287 -574 -343 -1112 -919 -1563 -1673 -202 -338 -421 -779 -578 -1165
-25 -63 -52 -128 -60 -145 -27 -62 -155 -414 -155 -428 0 -7 -3 -17 -7 -21 -5
-4 -18 -38 -30 -74 l-22 -67 5 65 c6 88 13 178 19 220 3 19 7 55 10 80 15 118
60 350 96 490 163 644 464 1203 871 1622 26 26 44 48 41 48 -5 0 -155 -119
-210 -166 -12 -11 -32 -28 -45 -38 -216 -176 -568 -543 -772 -803 -49 -62 -72
-84 -44 -40 8 12 37 58 63 102 106 175 257 395 424 615 123 161 376 479 519
650 39 46 69 86 68 88 -5 5 -172 -66 -261 -110 -413 -207 -806 -508 -1275
-978 -275 -274 -385 -392 -520 -555 -41 -49 -77 -92 -80 -95 -3 -3 -34 -43
-69 -90 -35 -47 -68 -89 -73 -95 -10 -11 8 34 52 131 17 35 30 67 30 70 0 14
154 311 215 414 105 177 284 433 355 508 12 13 20 25 18 27 -2 2 -66 -41 -143
-96 -161 -114 -183 -130 -310 -227 -48 -36 -252 -198 -273 -216 -15 -13 -79
-68 -142 -122 -385 -330 -755 -706 -1101 -1119 -42 -49 -119 -146 -172 -215
-53 -69 -100 -129 -104 -135 -105 -135 -280 -389 -429 -620 -188 -294 -434
-752 -589 -1100 -37 -82 -69 -152 -72 -155 -5 -5 3 98 12 165 3 17 9 66 15
111 6 44 12 89 14 100 11 62 16 93 21 129 4 22 8 48 11 58 7 24 -6 21 -42 -11
-17 -15 -58 -49 -90 -77 -213 -182 -502 -479 -681 -700 -150 -184 -333 -441
-438 -613 -42 -68 -54 -76 -30 -19 8 20 15 39 15 42 0 3 2 10 5 17 2 7 27 82
56 166 28 84 50 155 48 157 -2 2 -23 -13 -45 -33 -23 -20 -70 -62 -105 -92
-35 -30 -156 -147 -269 -260 -178 -178 -260 -266 -453 -491 -21 -24 -100 -125
-175 -224 -586 -776 -902 -1528 -959 -2285 -11 -159 -6 -428 11 -530 9 -52 15
-110 12 -110 -2 0 -11 21 -21 48 -81 213 -331 412 -590 469 -113 24 -282 36
-292 20 -3 -5 8 -23 25 -40 88 -93 194 -317 232 -490 10 -48 13 -63 30 -177 9
-64 6 -431 -4 -480 -3 -14 -7 -45 -10 -70 -10 -85 -47 -265 -83 -402 -37 -136
-60 -174 -46 -75 10 69 9 328 -1 396 -19 130 -73 245 -140 296 -17 13 -54 31
-82 40 -49 16 -51 17 -78 88 -36 91 -71 230 -87 338 -20 140 -15 374 11 518 5
31 12 71 15 90 3 19 8 37 10 41 2 3 6 19 9 34 6 35 34 135 45 161 48 115 47
114 -58 -30 -185 -255 -521 -759 -521 -781 0 -3 -13 -24 -28 -47 -16 -23 -64
-107 -108 -187 -200 -367 -338 -722 -398 -1023 -37 -186 -42 -243 -52 -562 -7
-242 -10 -296 -19 -385 -3 -36 -8 -86 -10 -112 -2 -25 -11 -102 -20 -170 -8
-67 -18 -141 -21 -163 -2 -22 -9 -62 -14 -90 -5 -27 -12 -69 -15 -93 -9 -67
-31 -181 -71 -382 -14 -69 -28 -138 -31 -155 -10 -61 -13 -34 -14 141 -1 98
-2 193 -4 209 -5 73 -29 218 -41 260 -2 6 -8 29 -14 52 -14 59 -50 153 -58
153 -4 0 -8 -44 -8 -98 -1 -53 -9 -135 -19 -182 -18 -92 -63 -249 -75 -265 -4
-5 -11 -21 -14 -35 -4 -14 -39 -89 -79 -168 l-71 -144 -22 104 c-41 183 -123
340 -238 453 -94 93 -173 140 -341 205 -30 12 -96 29 -135 35 -19 3 -60 9 -90
14 -107 18 -355 11 -520 -14 -119 -18 -384 -90 -495 -135 l-50 -20 65 5 c200
15 265 18 360 18 317 0 552 -57 732 -177 378 -250 475 -806 261 -1496 l-26
-85 -14 74 c-52 277 -271 448 -643 502 -118 17 -463 16 -443 -1 4 -4 47 -23
94 -43 362 -153 584 -402 626 -703 13 -94 5 -307 -13 -336 -12 -19 12 -4 79
49 40 32 74 60 77 63 3 3 77 64 165 135 152 122 264 214 275 225 3 3 41 34 85
70 44 36 89 72 100 82 499 413 1163 971 1219 1023 6 6 106 91 221 190 269 230
640 554 705 615 34 32 87 79 179 160 41 36 84 74 96 85 11 11 54 49 94 85 114
100 162 143 190 169 14 13 59 53 100 90 41 36 86 76 99 88 13 13 63 58 110
100 47 43 96 87 108 98 83 76 183 167 201 182 11 10 68 63 127 117 59 55 115
107 125 115 10 9 63 57 117 108 54 50 109 100 120 110 42 36 271 250 369 345
55 53 118 113 140 133 50 47 131 124 737 706 682 655 1569 1547 2343 2354 110
115 211 221 225 235 14 14 90 95 170 180 80 84 156 165 170 180 175 185 275
293 306 329 22 25 53 59 69 77 34 36 206 221 283 304 28 31 60 66 72 80 12 13
51 56 88 95 37 39 108 116 157 170 50 55 113 125 140 155 28 30 84 93 125 140
41 47 80 90 85 96 44 49 181 203 385 434 36 40 70 78 75 84 6 6 73 83 150 171
77 88 142 162 145 165 3 3 18 21 34 40 29 36 114 133 177 205 20 22 121 139
224 260 103 121 201 236 219 256 17 19 49 57 71 84 22 26 45 53 50 59 6 6 69
81 140 166 72 85 132 157 135 160 5 4 124 147 172 205 9 11 43 52 75 90 32 39
65 78 73 88 8 10 23 28 34 40 10 12 55 67 99 122 44 55 88 107 96 116 9 9 30
33 46 55 17 21 53 65 81 99 56 67 149 181 292 360 53 66 99 122 102 125 3 3
66 81 140 175 74 93 143 179 152 190 9 11 84 106 167 210 82 105 154 195 158
200 7 9 63 78 100 125 7 8 96 123 198 255 102 132 191 247 198 255 7 8 49 62
93 120 237 310 362 474 574 755 281 375 252 335 355 475 46 63 88 120 93 125
4 6 52 71 106 145 55 74 103 141 109 148 5 6 6 12 1 11 -5 0 -189 -90 -409
-199z"/>
<path d="M19995 19873 c-141 -192 -905 -1212 -927 -1238 -9 -11 -82 -105 -162
-210 -140 -183 -240 -312 -336 -434 -25 -32 -56 -73 -70 -91 -14 -18 -43 -56
-66 -84 -22 -28 -117 -148 -210 -266 -216 -275 -653 -820 -851 -1063 -189
-230 -186 -227 -198 -241 -6 -6 -29 -33 -51 -61 -21 -27 -49 -61 -61 -75 -11
-14 -76 -92 -144 -175 -68 -82 -126 -152 -129 -155 -4 -4 -90 -107 -171 -205
-41 -49 -153 -182 -173 -205 -11 -14 -70 -83 -131 -155 -112 -134 -310 -366
-340 -399 -5 -6 -50 -58 -100 -116 -49 -58 -100 -116 -111 -130 -56 -65 -417
-478 -449 -514 -5 -6 -57 -65 -115 -131 -58 -66 -114 -129 -125 -141 -11 -11
-49 -54 -85 -95 -116 -131 -242 -273 -294 -330 -28 -30 -85 -93 -126 -139 -41
-46 -80 -88 -85 -94 -6 -6 -71 -78 -145 -161 -74 -82 -153 -170 -177 -195 -23
-25 -50 -54 -60 -66 -16 -19 -173 -189 -262 -283 -18 -20 -54 -58 -78 -86 -50
-55 -224 -243 -288 -310 -22 -23 -92 -97 -155 -165 -63 -68 -149 -158 -190
-200 -41 -43 -113 -117 -159 -166 -99 -105 -435 -454 -676 -703 -212 -219
-1703 -1711 -1920 -1921 -88 -86 -178 -169 -200 -185 -22 -17 -56 -46 -76 -65
-20 -19 -93 -89 -163 -155 -70 -66 -156 -147 -190 -180 -35 -33 -96 -91 -137
-129 -130 -121 -203 -189 -285 -266 -159 -148 -367 -342 -463 -429 -14 -13
-46 -42 -71 -65 -25 -23 -74 -69 -110 -101 -227 -207 -287 -262 -305 -280 -12
-11 -62 -56 -111 -100 -49 -44 -94 -84 -100 -90 -24 -22 -178 -161 -194 -175
-26 -23 -180 -161 -211 -190 -15 -14 -53 -47 -84 -75 -32 -27 -70 -61 -85 -75
-15 -14 -58 -52 -96 -85 -38 -33 -78 -69 -89 -80 -12 -11 -53 -47 -91 -80 -38
-33 -74 -64 -80 -70 -30 -27 -143 -126 -174 -151 -19 -16 -42 -36 -50 -45 -8
-9 -46 -42 -85 -75 -38 -32 -72 -62 -75 -65 -12 -13 -453 -390 -620 -529 -102
-85 -190 -159 -196 -165 -6 -5 -29 -25 -52 -43 -23 -19 -50 -41 -61 -50 -11
-10 -36 -30 -56 -47 -21 -16 -47 -38 -59 -49 -24 -21 -204 -169 -250 -206 -27
-21 -236 -193 -291 -239 -11 -9 -65 -52 -120 -96 -55 -44 -102 -82 -105 -86
-3 -3 -50 -41 -105 -85 -55 -43 -102 -81 -105 -84 -3 -3 -25 -21 -50 -40 -25
-19 -54 -43 -65 -52 -11 -9 -103 -83 -205 -164 -102 -80 -198 -157 -215 -171
-73 -58 -220 -174 -340 -267 -71 -55 -132 -103 -135 -106 -3 -3 -21 -17 -40
-30 -19 -13 -37 -27 -40 -30 -7 -8 -160 -127 -335 -261 -275 -211 -319 -245
-430 -329 -123 -94 -808 -608 -955 -716 -276 -204 -341 -252 -525 -385 -110
-80 -276 -201 -370 -268 -93 -67 -179 -129 -190 -137 -11 -8 -121 -86 -245
-174 -124 -88 -258 -184 -299 -213 -40 -28 -80 -57 -89 -63 -14 -10 -14 -14
-2 -29 43 -52 150 -62 271 -24 104 32 291 129 444 230 121 79 397 282 491 360
22 19 60 50 84 69 24 19 118 98 210 176 91 77 202 168 246 203 43 34 86 68 95
75 10 8 48 38 85 67 38 30 71 56 74 59 4 5 69 57 120 97 24 19 213 173 235
191 11 10 52 43 90 74 39 31 165 134 281 229 117 96 229 188 250 204 20 17 42
35 49 40 21 20 114 95 350 284 132 106 256 206 275 221 19 16 53 42 75 59 22
17 46 36 54 42 15 13 78 62 166 128 33 25 62 48 65 51 16 17 215 162 274 199
397 248 893 348 1281 257 250 -58 482 -244 576 -462 57 -130 80 -174 109 -208
39 -44 102 -82 168 -103 56 -17 178 -19 247 -4 61 14 198 62 192 68 -3 2 -32
6 -66 8 -155 11 -278 133 -341 338 -17 55 -50 188 -64 257 -2 14 -10 50 -16
80 -47 242 -160 453 -293 551 -63 47 -175 98 -246 112 l-63 13 73 32 c130 56
283 94 434 107 84 8 264 8 329 0 25 -3 67 -7 94 -11 88 -10 117 -15 258 -49
78 -19 195 -52 259 -74 65 -23 120 -39 122 -37 5 5 -95 137 -141 184 -154 161
-408 284 -636 308 -36 3 -67 8 -69 10 -5 5 108 57 182 84 131 48 281 83 462
107 79 11 498 10 600 0 91 -10 107 -12 230 -28 124 -16 130 -16 172 -23 21 -3
55 -9 77 -12 21 -3 48 -8 60 -10 72 -14 146 -27 176 -30 19 -2 55 -8 80 -14
243 -53 476 -66 630 -35 109 22 146 31 225 57 114 38 343 149 460 223 206 131
456 336 665 547 115 115 267 282 240 262 -8 -6 -51 -38 -95 -72 -92 -69 -267
-183 -370 -241 -351 -196 -651 -308 -965 -357 -64 -10 -266 -12 -314 -3 -23 4
-54 9 -71 12 -53 8 -112 27 -166 52 l-54 25 45 -6 c25 -4 77 -15 115 -25 39
-10 76 -19 83 -19 31 0 -29 175 -92 270 -51 78 -138 163 -226 222 -68 45 -101
70 -75 56 6 -3 37 -2 70 3 220 31 581 31 776 0 178 -29 413 -112 510 -182 l31
-22 -7 24 c-13 45 -114 244 -156 309 -58 88 -170 198 -250 246 l-66 39 151 0
c141 0 310 10 324 19 4 2 30 7 57 10 168 22 515 129 770 238 202 87 568 275
735 378 8 5 78 47 155 93 336 201 852 538 1163 759 246 176 717 529 742 558 3
3 59 49 125 102 66 53 134 108 150 122 17 14 35 29 40 33 28 21 85 73 81 73
-3 0 -60 -27 -127 -61 -212 -106 -415 -190 -645 -268 -133 -45 -353 -110 -399
-117 -16 -3 -55 -12 -85 -19 -63 -16 -314 -65 -331 -65 -6 0 60 36 148 80 224
111 421 218 608 328 260 154 503 309 755 486 105 73 498 363 510 376 3 3 61
50 130 105 69 55 136 109 150 121 14 12 67 56 118 99 51 43 91 79 88 82 -2 3
-19 -2 -38 -10 -32 -15 -223 -69 -283 -81 -16 -4 -41 -9 -55 -12 -25 -5 -159
-26 -255 -39 -79 -11 -501 -12 -595 -2 -95 11 -95 11 60 47 132 32 390 116
485 160 11 5 53 23 93 40 170 73 440 217 597 321 33 21 67 42 75 46 53 24 404
285 574 426 489 405 1079 1023 1516 1587 47 61 61 77 91 114 47 57 150 196
145 196 -3 0 -47 -30 -98 -66 -51 -36 -169 -114 -263 -174 -397 -251 -758
-441 -1150 -605 -214 -89 -242 -96 -125 -33 287 155 607 361 919 591 53 39 98
73 101 76 3 4 22 19 44 35 34 26 274 224 302 251 6 5 51 46 100 90 114 103
357 346 457 457 170 189 466 561 506 637 12 22 10 21 -33 -9 -114 -78 -369
-188 -476 -205 -19 -3 -59 -9 -87 -14 -29 -4 -53 -4 -53 0 0 5 5 9 12 9 21 0
160 72 243 125 298 192 600 521 907 990 105 159 268 427 268 439 0 3 -64 -43
-142 -102 -147 -110 -336 -241 -468 -324 -41 -26 -80 -51 -85 -55 -6 -4 -26
-17 -45 -27 -29 -16 -22 -6 37 55 39 41 81 85 93 99 12 14 38 43 58 65 20 22
62 69 92 105 30 35 66 77 78 92 13 14 68 84 123 155 54 70 102 133 107 138
113 143 361 531 471 740 l53 100 -104 -105 c-279 -282 -554 -480 -943 -679
-141 -72 -315 -153 -315 -147 0 2 30 23 68 47 65 41 226 156 267 190 201 167
220 184 385 349 376 378 674 808 868 1255 55 127 141 391 156 480 3 17 8 44
11 60 26 135 29 162 40 335 3 47 8 105 10 130 3 44 9 121 20 270 3 41 8 102
10 135 7 83 20 258 30 403 12 175 21 292 30 407 2 28 7 91 10 140 3 50 8 110
10 135 10 115 17 240 13 240 -3 0 -54 -66 -113 -147z"/>
</g>
</svg>
