<?xml version="1.0" standalone="no"?>
<!DOCTYPE svg PUBLIC "-//W3C//DTD SVG 20010904//EN"
 "http://www.w3.org/TR/2001/REC-SVG-20010904/DTD/svg10.dtd">
<svg version="1.0" xmlns="http://www.w3.org/2000/svg"
 width="2083.000000pt" height="2083.000000pt" viewBox="0 0 2083.000000 2083.000000"
 preserveAspectRatio="xMidYMid meet">
<metadata>
Created by potrace 1.11, written by Peter Selinger 2001-2013
</metadata>
<g transform="translate(0.000000,2083.000000) scale(0.100000,-0.100000)"
fill="#000000" stroke="none">
<path d="M20067 13963 c-2 -2 -719 -13 -1097 -18 -157 -1 -312 -6 -345 -9
-487 -54 -881 -186 -1365 -456 -163 -90 -430 -265 -572 -374 -36 -28 -77 -59
-90 -68 -46 -34 -348 -285 -417 -348 -107 -96 -172 -158 -318 -302 -155 -154
-160 -158 -134 -106 91 180 284 455 430 612 266 284 523 479 841 636 74 37
163 77 198 90 34 12 61 24 59 26 -8 8 -362 -85 -477 -126 -224 -78 -386 -144
-529 -214 -50 -24 -91 -43 -91 -41 0 12 318 206 473 289 105 56 545 276 552
276 3 0 53 24 112 53 105 50 107 52 73 57 -45 7 -269 4 -357 -4 -298 -28 -586
-94 -958 -217 -82 -27 -159 -53 -170 -58 -11 -5 -120 -48 -241 -95 -122 -48
-283 -118 -358 -155 -75 -38 -136 -67 -136 -66 0 1 37 33 81 71 45 38 87 74
93 80 25 24 232 177 254 187 12 5 22 14 22 19 0 4 4 8 10 8 5 0 36 17 67 37
75 48 139 84 235 131 43 20 78 40 78 43 0 4 -21 2 -47 -3 -27 -5 -61 -11 -78
-13 -122 -18 -426 -84 -620 -136 -82 -23 -154 -42 -160 -43 -13 -3 -32 -9
-205 -63 -260 -83 -553 -196 -835 -323 -67 -30 -390 -191 -440 -220 -22 -12
-76 -43 -120 -67 -209 -118 -595 -370 -720 -470 -5 -5 -39 -31 -75 -58 -87
-66 -218 -174 -309 -254 l-73 -65 20 40 c11 21 68 110 125 197 58 86 99 157
93 157 -21 0 -224 -59 -350 -101 -333 -112 -650 -264 -963 -459 l-98 -62 95
98 c52 53 110 112 128 130 17 18 32 34 32 37 0 17 -530 -159 -685 -227 -16 -8
-64 -28 -105 -46 -230 -98 -532 -261 -735 -395 -99 -66 -272 -190 -285 -205
-3 -3 -18 -16 -35 -29 -85 -65 -238 -210 -351 -332 -220 -239 -435 -599 -511
-856 -20 -71 -30 -80 -28 -27 4 67 -23 182 -59 257 -44 92 -108 171 -193 242
-60 49 -187 125 -211 125 -5 0 -3 -26 6 -62 21 -89 21 -291 -2 -392 -48 -219
-171 -464 -343 -684 -79 -101 -143 -176 -143 -166 0 4 29 66 65 138 71 144 96
227 96 317 1 69 -25 132 -70 172 -31 27 -33 42 -16 173 30 234 178 526 369
725 31 32 56 60 56 63 0 6 -270 -146 -428 -241 -493 -295 -864 -599 -1078
-884 -90 -119 -112 -155 -186 -298 -160 -309 -250 -463 -408 -701 -84 -128
-248 -358 -295 -415 -15 -19 -15 -18 -1 10 122 255 168 394 181 555 l6 75 -40
-78 c-71 -141 -208 -297 -356 -408 -33 -24 -63 -48 -67 -54 -16 -22 -17 6 -3
68 86 371 -114 691 -540 862 -161 64 -378 115 -555 130 -75 6 -80 9 100 -61
372 -143 605 -342 675 -574 20 -67 28 -227 14 -295 -6 -27 -12 -61 -15 -74
-31 -154 -180 -417 -325 -576 -15 -16 -41 -46 -58 -65 l-30 -35 14 54 c8 31
13 90 12 136 -2 71 -7 91 -40 157 -20 42 -57 99 -82 126 -58 64 -168 148 -265
200 -72 39 -230 106 -235 100 -2 -2 19 -28 46 -58 27 -30 62 -73 77 -95 15
-22 30 -42 33 -45 14 -11 88 -158 103 -203 25 -76 31 -115 30 -212 -1 -113
-29 -207 -95 -317 -36 -60 -43 -77 -29 -73 10 3 27 7 37 9 10 2 122 30 248 61
127 31 237 58 245 60 15 3 440 111 825 210 1399 359 3270 928 4920 1495 928
320 2085 750 2895 1077 129 52 350 141 490 198 305 123 537 218 605 250 28 12
91 39 140 60 50 20 114 48 143 61 29 13 54 24 56 24 2 0 30 12 62 27 33 15 61
27 64 27 8 1 563 243 648 282 40 19 75 34 77 34 2 0 39 16 82 36 43 20 92 42
108 49 17 8 65 30 108 49 43 20 79 36 81 36 2 0 48 20 101 45 53 25 111 52
128 59 39 16 645 296 782 361 610 289 685 325 1330 646 620 309 922 463 1340
684 44 23 130 68 190 100 170 89 519 277 525 282 2 2 -116 3 -264 1 -147 -2
-268 -4 -269 -5z"/>
<path d="M20595 13861 c-75 -41 -373 -200 -620 -331 -38 -20 -122 -64 -185
-98 -320 -169 -1592 -808 -1890 -950 -47 -22 -148 -70 -225 -107 -253 -121
-329 -157 -572 -271 -174 -81 -235 -109 -343 -159 -63 -29 -149 -68 -190 -87
-41 -20 -136 -63 -210 -96 -130 -58 -184 -82 -307 -138 -32 -14 -114 -51 -183
-81 -69 -31 -150 -67 -180 -80 -66 -30 -837 -360 -1005 -431 -66 -28 -165 -69
-220 -92 -55 -23 -113 -48 -130 -55 -16 -7 -50 -20 -75 -30 -25 -10 -63 -27
-86 -36 -22 -10 -65 -27 -95 -39 -30 -11 -67 -27 -84 -34 -164 -74 -1503 -597
-1800 -702 -38 -14 -79 -29 -90 -34 -11 -6 -63 -25 -115 -44 -52 -18 -198 -72
-325 -119 -126 -46 -340 -124 -475 -171 -135 -48 -254 -91 -265 -96 -11 -5
-74 -27 -140 -50 -135 -47 -226 -79 -398 -140 -65 -23 -126 -43 -135 -45 -9
-3 -95 -32 -191 -65 -95 -33 -187 -63 -204 -65 -17 -3 -114 -34 -216 -67 -102
-34 -190 -63 -196 -64 -5 -1 -50 -16 -100 -32 -49 -17 -157 -51 -240 -77 -82
-26 -163 -52 -180 -58 -16 -6 -34 -12 -40 -13 -5 -1 -125 -38 -265 -82 -140
-44 -307 -96 -370 -115 -107 -33 -274 -84 -465 -142 -166 -50 -322 -97 -385
-115 -36 -10 -96 -28 -135 -39 -38 -12 -77 -23 -85 -25 -8 -2 -132 -38 -275
-79 -315 -91 -810 -227 -1075 -296 -292 -75 -473 -122 -493 -126 -10 -2 -27
-7 -37 -10 -10 -3 -27 -8 -37 -10 -10 -2 -164 -39 -343 -83 -265 -65 -555
-135 -652 -158 -10 -2 -28 -6 -40 -10 -13 -3 -33 -7 -46 -10 -13 -2 -83 -18
-155 -35 -307 -72 -343 -81 -367 -85 -14 -3 -54 -12 -90 -20 -36 -8 -128 -29
-205 -45 -77 -17 -149 -33 -160 -35 -11 -3 -31 -7 -45 -10 -14 -3 -41 -9 -60
-14 -19 -5 -53 -12 -75 -16 -22 -3 -43 -8 -46 -10 -3 -2 -19 -5 -35 -8 -24 -5
-130 -26 -374 -78 -25 -5 -56 -12 -70 -14 -14 -3 -45 -10 -70 -15 -60 -14 -71
-16 -111 -23 -19 -3 -74 -14 -124 -25 -49 -11 -104 -22 -121 -25 -17 -3 -145
-28 -285 -56 -140 -28 -269 -53 -288 -56 -18 -3 -43 -8 -55 -10 -44 -9 -392
-76 -416 -80 -14 -2 -41 -7 -60 -10 -19 -4 -42 -8 -50 -9 -8 -2 -31 -5 -50 -9
-50 -9 -141 -27 -165 -31 -11 -2 -63 -11 -115 -20 -52 -8 -129 -22 -170 -30
-74 -14 -85 -16 -165 -30 -103 -17 -97 -13 -79 -44 65 -109 288 -136 659 -77
22 4 47 8 55 11 8 2 33 6 55 10 54 8 345 78 477 116 60 16 116 32 125 34 10 3
92 23 183 45 91 22 185 45 210 51 25 6 52 12 60 14 8 2 65 15 125 30 61 14
117 28 126 30 8 2 117 29 242 60 125 31 235 58 244 60 10 2 92 22 183 45 91
23 172 43 180 45 8 2 92 22 185 45 94 22 208 50 255 60 47 11 155 36 240 55
218 50 385 83 455 91 93 10 261 7 350 -5 83 -12 275 -55 310 -71 205 -91 281
-137 373 -228 71 -70 125 -151 156 -234 32 -86 37 -113 41 -260 5 -150 23
-205 89 -265 76 -70 151 -100 276 -109 l75 -6 -51 31 c-157 92 -180 242 -91
588 49 193 58 290 32 386 -30 113 -90 208 -179 278 l-48 39 83 -6 c315 -20
640 -183 959 -483 35 -33 65 -59 66 -58 6 6 -29 148 -48 197 -59 149 -194 313
-328 400 l-65 41 115 -5 c136 -6 152 -8 295 -46 247 -65 523 -205 860 -435 33
-23 132 -91 220 -151 235 -162 300 -194 467 -234 154 -36 410 -44 568 -16 14
2 59 10 100 17 41 7 77 13 80 14 3 1 21 5 40 9 126 29 407 115 475 145 11 5
59 24 107 43 48 18 85 34 83 36 -1 2 -31 -4 -66 -12 -35 -8 -84 -17 -109 -21
-25 -3 -72 -10 -105 -16 -189 -29 -508 -31 -720 -2 -78 10 -261 61 -339 93
-89 37 -191 103 -250 161 -56 54 -33 48 44 -12 l64 -51 8 29 c37 128 1 307
-87 440 l-35 53 110 -39 c215 -77 396 -167 537 -268 78 -55 199 -174 241 -235
18 -27 35 -48 38 -48 11 0 -6 285 -20 342 -17 70 -58 161 -93 207 -15 19 -22
32 -17 29 85 -46 321 -139 387 -152 12 -3 51 -11 87 -20 261 -61 549 -80 935
-62 83 4 166 9 185 11 19 2 71 6 115 10 44 4 91 8 105 10 14 1 54 6 90 10 36
3 72 8 80 10 8 2 44 7 80 10 84 9 97 11 145 18 22 4 60 9 85 12 48 6 101 13
147 20 15 2 48 7 73 10 202 29 703 120 875 160 123 28 290 67 305 70 39 9 265
68 268 70 2 2 -88 3 -200 2 -178 -1 -334 5 -433 18 -47 6 -139 18 -145 20 -3
0 -30 5 -60 9 -140 20 -452 94 -469 112 -2 2 56 4 130 5 74 1 157 2 184 4 117
6 283 17 315 20 19 2 67 6 105 9 110 10 360 41 425 53 19 3 38 6 42 5 4 -1 31
3 60 8 55 10 77 14 143 25 31 5 340 65 415 80 8 2 56 13 105 25 50 12 101 24
115 26 51 10 305 77 312 83 4 3 -11 7 -34 8 -133 8 -398 76 -573 146 -101 41
-360 175 -352 183 2 2 19 -1 38 -6 39 -10 61 -14 209 -35 58 -8 141 -17 185
-20 98 -6 381 -6 450 0 28 2 83 7 123 10 40 4 83 8 95 10 12 2 58 9 103 15 44
6 91 13 105 15 13 3 40 8 59 11 19 3 55 10 80 16 25 5 58 12 74 15 23 4 136
31 316 77 211 54 621 198 920 324 145 61 383 168 429 192 9 5 99 50 201 100
173 85 234 121 185 106 -41 -11 -296 -48 -430 -61 -132 -14 -127 -13 -380 -30
-76 -6 -436 -6 -525 0 -30 1 -73 3 -94 4 -66 2 -35 10 59 16 50 3 106 8 125
10 19 3 64 7 100 10 36 3 76 8 90 10 14 2 45 7 70 10 213 28 529 90 740 146
177 47 495 152 605 199 22 10 92 39 155 66 111 47 357 168 446 220 44 26 59
42 27 29 -27 -11 -261 -14 -318 -5 -27 5 -66 11 -85 15 -19 3 -55 12 -80 20
l-45 14 65 1 c374 10 781 172 1315 523 55 36 109 73 120 82 10 8 23 15 27 15
4 0 8 4 8 10 0 6 -10 6 -27 -1 -16 -6 -39 -12 -53 -14 -14 -2 -83 -15 -155
-29 -71 -13 -148 -27 -170 -30 -22 -3 -71 -10 -110 -16 -38 -6 -97 -12 -130
-15 l-60 -5 37 14 c313 122 676 304 953 480 87 55 315 215 315 220 0 2 -38
-11 -84 -29 -76 -30 -223 -76 -287 -91 -41 -9 -163 -34 -189 -38 -182 -30
-347 -45 -520 -47 -186 -2 -224 3 -125 15 387 50 885 229 1242 447 86 53 262
172 288 196 11 10 43 36 70 58 83 66 214 195 285 280 91 110 162 218 252 385
22 41 308 550 468 835 37 66 81 145 98 175 16 30 46 84 66 118 20 35 36 66 36
68 0 9 -17 2 -65 -25z"/>
</g>
</svg>
